# xmcd CD database file
#
# Track frame offsets:
#	150
#	42888
#	103910
#	149819
#	204022
#	215759
#	232345
#	279042
#
# Disc length: 3989 seconds
#
# Revision: 0
# Processed by: cddbd v1.5.1PL0 Copyright (c) Steve Scherf et al.
# Submitted via: CDex 1.51
#
DISCID=7b0f9308
DTITLE=Miles Davis - Fillmore West 1970
DYEAR=1900
DGENRE=Jazz
TTITLE0=Directions
TTITLE1=Miles Runs the Voodoo Down
TTITLE2=Paraphernalia
TTITLE3=Footprints
TTITLE4=I Fall in Love Too Easily
TTITLE5=Sanctuary
TTITLE6=It's About That Time
TTITLE7=Willie Nelson/The Theme
EXTD=
EXTT0=
EXTT1=
EXTT2=
EXTT3=
EXTT4=
EXTT5=
EXTT6=
EXTT7=
PLAYORDER=
